<?xml version="1.0" standalone="no"?>
<!DOCTYPE svg PUBLIC "-//W3C//DTD SVG 20010904//EN"
 "http://www.w3.org/TR/2001/REC-SVG-20010904/DTD/svg10.dtd">
<svg version="1.0" xmlns="http://www.w3.org/2000/svg"
 width="1024.000000pt" height="1024.000000pt" viewBox="0 0 1024.000000 1024.000000"
 preserveAspectRatio="xMidYMid meet">
<metadata>
Created by potrace 1.16, written by Peter Selinger 2001-2019
</metadata>
<g transform="translate(0.000000,1024.000000) scale(0.100000,-0.100000)"
fill="#000000" stroke="none">
<path d="M6738 8843 c-39 -31 -626 -518 -1252 -1040 -341 -285 -401 -331 -415
-321 -8 7 -110 92 -226 188 -115 96 -394 328 -620 515 -225 187 -497 413 -604
503 -151 125 -202 162 -224 162 -18 0 -69 -27 -145 -77 -253 -166 -435 -285
-622 -408 -107 -71 -265 -174 -350 -230 -85 -56 -243 -159 -350 -230 -107 -71
-258 -170 -335 -220 -77 -51 -248 -163 -380 -249 -132 -87 -246 -165 -253
-174 -26 -34 -14 -59 61 -124 39 -36 397 -338 795 -672 397 -334 722 -611 722
-615 0 -5 -33 -33 -73 -64 -39 -30 -144 -112 -232 -182 -88 -70 -190 -150
-226 -178 -37 -29 -146 -115 -244 -192 -97 -77 -203 -160 -235 -185 -233 -181
-553 -435 -579 -459 -35 -33 -39 -63 -13 -89 10 -10 74 -56 143 -102 68 -46
171 -116 229 -155 58 -39 211 -143 340 -231 129 -87 388 -262 575 -389 l340
-230 3 -235 c2 -200 5 -236 19 -252 9 -10 22 -18 29 -18 7 0 17 -6 21 -13 4
-7 69 -52 143 -99 74 -47 225 -143 335 -213 110 -70 272 -174 360 -230 88 -56
250 -160 360 -230 465 -297 843 -539 1055 -674 96 -61 185 -111 197 -111 12 0
71 31 130 69 104 67 607 387 1383 881 799 509 945 604 953 616 4 8 17 14 27
14 44 0 50 30 50 261 l0 216 203 137 c111 76 294 200 407 276 113 76 293 198
400 270 531 357 615 416 618 433 8 42 -13 67 -159 187 -84 69 -196 161 -249
205 -53 44 -170 141 -260 215 -90 74 -215 178 -278 230 -64 52 -145 120 -182
150 -103 84 -464 382 -473 390 -4 4 357 302 802 663 445 362 813 666 816 678
11 33 -18 63 -142 144 -356 232 -453 296 -611 398 -95 62 -243 158 -330 215
-86 56 -235 153 -330 215 -95 62 -234 153 -310 202 -635 415 -745 485 -762
485 -9 0 -32 -12 -52 -27z m782 -576 c1440 -937 1598 -1042 1594 -1049 -3 -4
-253 -209 -557 -455 -977 -792 -1042 -845 -1050 -860 -20 -34 7 -64 195 -219
105 -88 259 -215 342 -284 83 -69 357 -295 609 -504 l458 -378 -248 -167
c-664 -447 -1291 -872 -1316 -893 l-28 -23 -2 -224 -2 -223 -1214 -774 c-912
-580 -1219 -771 -1230 -764 -28 16 -2345 1498 -2369 1515 l-24 17 3 228 c3
211 2 230 -15 249 -10 11 -173 125 -362 253 -190 128 -417 283 -507 343 -89
61 -288 196 -441 299 l-279 189 39 32 c21 18 338 268 704 555 870 684 864 679
873 707 6 16 5 30 -5 43 -7 10 -364 314 -793 675 -429 361 -781 660 -783 664
-2 5 46 40 105 78 59 39 306 201 548 360 1392 916 1617 1063 1625 1063 5 0
374 -303 821 -674 446 -371 826 -682 844 -692 30 -16 37 -16 60 -4 14 7 397
323 852 701 454 379 831 685 837 682 6 -4 328 -213 716 -466z"/>
</g>
</svg>
